HIERARCHY
ROOT Hips
{
  OFFSET -147.801 11.1882 83.2652
  CHANNELS 6 Xposition Yposition Zposition Zrotation Xrotation Yrotation
  JOINT ToSpine
  {
    OFFSET -2.69724 7.43032 -0.144315
    CHANNELS 3 Zrotation Xrotation Yrotation
    JOINT Spine
    {
      OFFSET -0.0310711 10.7595 1.96963
      CHANNELS 3 Zrotation Xrotation Yrotation
      JOINT Spine1
      {
        OFFSET 19.9056 3.91189 0.764692
        CHANNELS 3 Zrotation Xrotation Yrotation
        JOINT Neck
        {
          OFFSET 25.9749 7.03908 -0.130764
          CHANNELS 3 Zrotation Xrotation Yrotation
          JOINT Head
          {
            OFFSET 9.52751 0.295786 -0.907742
            CHANNELS 3 Zrotation Xrotation Yrotation
            End Site
            {
              OFFSET 16.4037 0.713936 2.7358
            }
          }
        }
        JOINT LeftShoulder
        {
          OFFSET 17.7449 4.33886 11.7777
          CHANNELS 3 Zrotation Xrotation Yrotation
          JOINT LeftArm
          {
            OFFSET 0.911315 1.27913 9.80584
            CHANNELS 3 Zrotation Xrotation Yrotation
            JOINT LeftForeArm
            {
              OFFSET 28.6126 1.18197 -3.53199
              CHANNELS 3 Zrotation Xrotation Yrotation
              JOINT LeftHand
              {
                OFFSET 27.5088 0.0218783 0.327423
                CHANNELS 3 Zrotation Xrotation Yrotation
                End Site
                {
                  OFFSET 18.6038 -0.000155887 0.382096
                }
              }
            }
          }
        }
        JOINT RightShoulder
        {
          OFFSET 17.1009 2.89543 -12.2328
          CHANNELS 3 Zrotation Xrotation Yrotation
          JOINT RightArm
          {
            OFFSET 1.4228 0.178766 -10.211
            CHANNELS 3 Zrotation Xrotation Yrotation
            JOINT RightForeArm
            {
              OFFSET 28.733 1.87905 2.64907
              CHANNELS 3 Zrotation Xrotation Yrotation
              JOINT RightHand
              {
                OFFSET 27.4588 0.290562 -0.101845
                CHANNELS 3 Zrotation Xrotation Yrotation
                End Site
                {
                  OFFSET 17.8396 -0.255518 -0.000602873
                }
              }
            }
          }
        }
      }
    }
  }
  JOINT LeftUpLeg
  {
    OFFSET -5.61296 -2.22332 -10.2353
    CHANNELS 3 Zrotation Xrotation Yrotation
    JOINT LeftLeg
    {
      OFFSET 2.56703 -44.7417 -7.93097
      CHANNELS 3 Zrotation Xrotation Yrotation
      JOINT LeftFoot
      {
        OFFSET 3.16933 -46.5642 -3.96578
        CHANNELS 3 Zrotation Xrotation Yrotation
        JOINT LeftToeBase
        {
          OFFSET 0.346054 -6.02161 12.8035
          CHANNELS 3 Zrotation Xrotation Yrotation
          End Site
          {
            OFFSET 0.134235 -1.35082 5.13018
          }
        }
      }
    }
  }
  JOINT RightUpLeg
  {
    OFFSET -5.7928 -1.72406 10.6446
    CHANNELS 3 Zrotation Xrotation Yrotation
    JOINT RightLeg
    {
      OFFSET -2.57161 -44.7178 -7.85259
      CHANNELS 3 Zrotation Xrotation Yrotation
      JOINT RightFoot
      {
        OFFSET -3.10148 -46.5936 -4.03391
        CHANNELS 3 Zrotation Xrotation Yrotation
        JOINT RightToeBase
        {
          OFFSET -0.0828122 -6.13587 12.8035
          CHANNELS 3 Zrotation Xrotation Yrotation
          End Site
          {
            OFFSET -0.131328 -1.35082 5.13018
          }
        }
      }
    }
  }
}
MOTION
Frames:	13
Frame Time:	0.0333333
-157.01 52.1451 70.5727 10.922 -4.31727 -90.5658 -70.1915 0 88.8779 135.048 62.3051 -54.7402 -10.1812 20.7816 4.56519 173.237 17.5905 -169.102 -161.193 60.7665 -179.824 1.26697 -7.07282 -19.696 -95.7329 17.6762 -168.425 -22.2435 52.235 11.7106 58.7356 -1.07159 -0.185291 0.372309 -2.56505 19.8835 -67.4385 7.70782 145.066 -3.1 -2.09134 17.0342 72.6421 -8.16465 -11.5799 -10.322 18.948 99.936 -128.292 84.4266 118.792 2.13993 -6.92829 -0.742133 -28.8362 -48.2743 -16.5645 -43.6165 -5.48311 83.5068 2.65659 45.6123 6.84951 -6.43263 -5.52783 1.03619 -17.5924 -55.3625 -13.4921 
-157.842 54.1866 69.8027 11.9303 -4.63056 -90.6518 -70.1915 0 88.8779 136.608 60.7648 -58.3363 -10.1102 20.6989 4.81854 171.795 17.8871 -168.932 -161.49 61.3629 -179.318 1.17962 -7.93738 -18.968 -97.9541 20.3269 -170.703 -21.7362 54.5596 12.7469 57.6374 -0.875747 0.125665 0.366341 -2.71225 18.8327 -72.6434 5.02829 147.387 -5.2748 -3.99271 14.346 71.7996 -7.88297 -11.3587 -2.6153 18.8986 98.4557 -154.01 78.8302 142.707 1.42813 -7.66104 -0.745253 -25.3216 -47.342 -10.4695 -42.8933 -6.32414 82.4157 2.65436 45.1838 7.33947 -6.49939 -5.05167 1.03335 -17.1961 -54.9306 -13.0322 
-158.667 56.0531 69.0536 13.2986 -4.90075 -90.4517 -70.1915 0 88.8779 137.566 59.2091 -61.0064 -9.83171 20.4553 4.94521 170.142 18.2914 -168.979 -162.988 62.1179 -178.738 1.04168 -9.56479 -21.0005 -101.099 17.7386 -172.31 -21.7898 55.1092 12.8939 56.1594 -0.729699 0.345467 0.346685 -2.89591 17.2053 -78.0264 0.0594717 149.661 -7.18423 -7.21205 11.1486 71.0739 -7.42978 -10.8707 5.11777 18.4569 97.1161 -160.427 74.0393 147.43 0.356498 -8.97331 -0.777864 -20.7178 -45.291 -2.28382 -42.4216 -7.47695 80.2832 2.64203 44.616 7.81805 -6.32833 -4.19089 1.00691 -17.05 -55.1345 -12.512 
-159.497 57.795 68.1928 14.6021 -5.37087 -90.2862 -70.1915 0 88.8779 138.278 57.2284 -63.3495 -9.74359 20.1205 4.59528 169.746 18.9739 -170.261 -162.52 62.475 -179.155 0.958634 -10.3843 -22.0508 -103.343 16.8514 -174.348 -21.568 55.6931 13.0982 55.1215 -0.864241 0.0592319 0.307031 -2.33066 16.6038 -81.1479 -1.31931 150.394 -8.53939 -6.87089 9.30382 70.6251 -7.55065 -11.1269 12.1265 18.0331 96.234 -162.581 70.9377 147.403 -0.224675 -10.4121 -0.863227 -21.6666 -46.7593 -2.71744 -41.9862 -8.74914 77.7234 2.63263 44.4398 7.96397 -6.61171 -3.48602 1.0206 -17.8958 -55.7341 -13.7974 
-160.364 59.5475 67.3003 15.8002 -6.0352 -90.1898 -70.1915 0 88.8779 139.542 54.8126 -66.3118 -10.0572 19.8581 4.57094 169.675 19.8023 -171.294 -161.757 62.9865 -179.315 0.846405 -11.1719 -23.9234 -105.608 15.5056 -176.462 -21.4842 55.8933 13.1698 53.8174 -1.00447 -0.260211 0.283715 -2.11406 15.3884 -83.4016 -1.88544 151.04 -9.69493 -5.07609 7.9329 70.06 -7.14766 -10.6632 17.8386 17.5335 95.9205 -162.924 69.7698 145.135 -0.588082 -11.9278 -0.971655 -25.3755 -51.0308 -5.78568 -41.5739 -9.73581 75.8941 2.62282 44.586 7.77723 -6.42991 -3.69712 1.00732 -17.8539 -54.5138 -14.9263 
-160.99 60.9716 66.4345 17.2207 -6.7193 -89.9417 -70.1915 0 88.8779 140.213 52.9744 -68.1441 -9.19193 19.5938 4.29547 169.875 20.6989 -172.5 -158.961 63.3206 179.381 0.715439 -12.224 -23.7299 -107.331 16.6565 -178.367 -20.411 56.8251 13.5415 52.8774 -1.03124 -0.355209 0.283426 -2.79271 14.0417 -85.6555 -2.76621 152.416 -10.4567 -3.83975 6.75432 69.8968 -7.14967 -10.6966 22.2099 16.6749 96.1956 -162.537 69.8583 142.849 -0.476475 -11.8174 -0.96379 -36.8431 -56.9799 -19.0898 -41.3782 -10.7142 74.5481 2.67533 44.8728 8.01024 -6.4214 -3.61897 1.00555 -18.9572 -53.9247 -18.0412 
-161.459 62.1166 65.5248 18.4523 -7.7583 -89.5922 -70.1915 0 88.8779 141.225 50.9527 -70.0667 -8.48354 19.2886 4.22516 170.168 21.3721 -173.025 -158.363 63.7946 179.381 0.611093 -13.1628 -23.1372 -108.824 18.1162 -179.962 -19.1992 57.7395 13.9259 52.3803 -1.17376 -0.666045 0.262121 -3.04167 12.6015 -87.8731 -3.89324 152.958 -10.7092 -2.88937 6.12537 69.4193 -7.00237 -10.5743 24.8522 15.6763 96.1095 -162.538 69.7151 142.234 -1.2313 -10.94 -0.880102 -33.3849 -51.5623 -20.7049 -41.4053 -11.2999 74.2141 2.74091 45.7083 7.81426 -6.67137 -3.25995 1.02305 -19.5565 -53.6829 -19.6631 
-161.696 63.1096 64.66 19.4891 -8.69939 -89.5452 -70.1915 0 88.8779 141.498 48.9533 -70.9121 -7.55452 18.7019 3.38831 170.921 21.8687 -174.372 -156.609 63.7404 179.098 0.699849 -13.032 -20.5971 -110.3 18.628 179.371 -17.549 56.0965 13.37 51.1519 -1.22549 -0.838381 0.266778 -3.71157 12.4424 -89.9546 -3.68768 154.818 -10.9723 -2.32206 5.57584 69.0346 -6.90127 -10.5003 25.9259 14.1792 96.0568 -162.75 69.3542 142.264 -1.95117 -12.0225 -0.958221 -23.3596 -43.356 -11.6408 -40.9746 -12.2237 74.4807 2.8761 47.2565 7.46205 -6.48731 -3.28031 1.00616 -18.9699 -53.5388 -18.5056 
-161.603 64.0094 63.7383 20.058 -9.8125 -89.4257 -70.1915 0 88.8779 142.046 46.5527 -71.4322 -7.09013 18.0239 2.29209 171.2 21.9343 -175.284 -157.483 63.6858 -179.22 0.815291 -12.2903 -18.347 -111.906 17.8854 179.197 -16.3575 53.5996 12.6002 50.4185 -1.24023 -0.912319 0.27254 -3.83664 12.4955 -92.2175 -3.94798 156.545 -11.046 -2.53499 5.10478 68.6739 -7.08895 -10.8451 25.7641 12.6073 96.3381 -162.316 69.8329 141.065 -1.90757 -11.1745 -0.882212 -23.8338 -44.7605 -10.7014 -40.7692 -13.1651 74.7147 3.07627 48.8248 7.46939 -6.48267 -3.8144 1.01381 -17.5354 -53.3843 -15.3666 
-161.333 64.9604 62.8546 19.9207 -10.8667 -89.3528 -70.1915 0 88.8779 143.583 44.9246 -72.7283 -6.2038 18.0392 2.33665 171.108 22.2489 -175.273 -157.396 64.0232 -179.052 0.833529 -12.4171 -17.0813 -113.57 17.1094 179.351 -15.1467 50.7768 11.86 49.5617 -1.16017 -0.790695 0.215947 -5.18613 10.6533 -94.2842 -4.8031 158.119 -10.781 -2.80897 5.12389 68.2222 -7.08487 -10.9288 24.8475 11.2228 96.311 -161.379 71.1273 140.203 -1.89446 -11.6662 -0.927365 -25.8428 -46.6104 -12.5974 -40.4248 -13.7922 75.0102 3.36525 50.3036 8.2196 -6.17328 -3.60815 0.982806 -16.7785 -52.7426 -14.2586 
-160.803 65.9221 61.902 19.2071 -11.4897 -89.6274 -70.1915 0 88.8779 144.938 43.368 -73.8562 -6.10749 18.0718 2.59896 171.644 22.6276 -175.809 -155.341 64.067 -179.786 0.859531 -12.6252 -15.387 -115.338 15.6904 -179.072 -13.9995 46.8568 11.0063 48.9468 -1.01346 -0.509249 0.116262 -5.93405 8.48458 -96.4715 -6.21985 159.207 -10.3551 -3.37866 5.20879 67.8107 -7.25624 -11.2672 23.9847 9.78976 95.8674 -160.313 72.4446 139.472 -2.00632 -13.1015 -1.05801 -25.9134 -46.168 -13.4151 -39.4146 -14.6069 75.1847 3.62231 51.718 8.5448 -6.30356 -3.48913 0.992439 -16.0592 -53.0144 -12.2751 
-160.025 67.0403 60.7799 17.5744 -11.8308 -90.5786 -70.1915 0 88.8779 146.176 42.0405 -74.9581 -6.37738 18.3059 2.79324 170.937 22.4967 -174.324 -158.315 64.6983 -176.621 0.90218 -12.2671 -14.2935 -117.114 14.335 -177.758 -13.0965 43.6494 10.4323 48.1598 -1.12913 -0.802854 -0.0397981 -6.53519 5.70935 -98.734 -8.29804 160.517 -9.98946 -4.05883 5.06943 67.4578 -7.05424 -11.0344 23.5649 9.10969 95.7641 -159.338 73.5512 139.119 -1.91405 -13.7095 -1.1155 -25.9457 -47.2281 -11.9272 -37.3795 -15.6972 75.6049 3.95361 53.6338 8.56193 -6.42885 -3.59587 1.006 -14.5451 -53.3799 -8.31599 
-159.095 68.3097 59.4859 14.8898 -11.8196 -92.0379 -70.1915 0 88.8779 147.434 41.0901 -75.8984 -6.72947 19.0805 2.35867 170.397 22.4084 -172.563 -163.3 65.4948 -170.763 0.944403 -11.9476 -12.4849 -118.886 13.2958 -176.063 -11.9151 40.013 9.89167 46.3044 -0.882509 -0.34766 -0.215275 -7.13108 2.98632 -100.615 -8.28799 161.823 -9.91532 -2.52012 5.36823 66.6028 -6.78019 -10.7908 23.9532 9.97155 96.0624 -158.755 74.3092 139.828 -0.773086 -12.3169 -1.00158 -27.9508 -49.8009 -12.5707 -33.6397 -16.883 75.8582 4.63358 57.2328 7.9738 -6.52313 -2.27082 0.994662 -13.5371 -52.6632 -6.46967 
